# xmcd CD database file
# Copyright (C) 1995-1998 Ti Kan
#
# Track frame offsets:
#	150
#	11152
#	34987
#	50692
#	64505
#	84442
#	100685
#	113175
#	132107
#	148970
#	166637
#	187615
#	203817
#	214015
#	226925
#	239560
#	253975
#	269310
#	284982
#	298692
#	315707
#
# Disc length: 4342 seconds
#
# Revision: 1
# Processed by: cddbd v1.4PL0 Copyright (c) Steve Scherf et al.
# Submitted via: CDex 1.30Release
#
DISCID=3c10f415
DTITLE=John Lee Hooker - Thats My Story
DYEAR=1900
DGENRE=Blues
TTITLE0=I NEED SOME MONEY
TTITLE1=I'M WANDERIN'
TTITLE2=DEMOCRAT MAN
TTITLE3=I WANT TO TALK ABOUT YOU
TTITLE4=GONNA USE MY ROD
TTITLE5=WEDNESDAY EVENIN' BLUES
TTITLE6=NO MORE DOGGIN'
TTITLE7=ON OF THESE DAYS
TTITLE8=I BELIEVE I'LL GO BACK HOME
TTITLE9=YOU'RE LEAVIN' ME, BABY
TTITLE10=THAT'S MY STORY
TTITLE11=BLACK SNAKE
TTITLE12=HOW LONG BLUES
TTITLE13=WOBBLIN' BABY
TTITLE14=SHE'S LONG, SHE'S TALL, SHE WEEPS LIKE A WILLOW TREE
TTITLE15=PEA VINE SPECIAL
TTITLE16=TUPELO BLUES
TTITLE17=I ROWED A LITTLE BOAT
TTITLE18=WATER BOY
TTITLE19=CHURCH BELL TONE
TTITLE20=BUNDLE UP AND GO
EXTD=ID3G:   0
EXTT0=
EXTT1=
EXTT2=
EXTT3=
EXTT4=
EXTT5=
EXTT6=
EXTT7=
EXTT8=
EXTT9=
EXTT10=
EXTT11=
EXTT12=
EXTT13=
EXTT14=
EXTT15=
EXTT16=
EXTT17=
EXTT18=
EXTT19=
EXTT20=
PLAYORDER=
